<svg width="30" height="30" viewBox="0 0 30 30" fill="none" xmlns="http://www.w3.org/2000/svg">
  <path d="M26.121 3.87836C25.5584 3.31595 24.7955 3 24 3C23.2045 3 22.4416 3.31595 21.879 3.87836L10.5 15.2574V19.4994H14.742L26.121 8.12036C26.6834 7.55778 26.9994 6.79485 26.9994 5.99936C26.9994 5.20387 26.6834 4.44094 26.121 3.87836Z" fill="white" />
  <path fill-rule="evenodd" clip-rule="evenodd" d="M3 9C3 8.20435 3.31607 7.44129 3.87868 6.87868C4.44129 6.31607 5.20435 6 6 6H12C12.3978 6 12.7794 6.15804 13.0607 6.43934C13.342 6.72064 13.5 7.10218 13.5 7.5C13.5 7.89782 13.342 8.27936 13.0607 8.56066C12.7794 8.84196 12.3978 9 12 9H6V24H21V18C21 17.6022 21.158 17.2206 21.4393 16.9393C21.7206 16.658 22.1022 16.5 22.5 16.5C22.8978 16.5 23.2794 16.658 23.5607 16.9393C23.842 17.2206 24 17.6022 24 18V24C24 24.7956 23.6839 25.5587 23.1213 26.1213C22.5587 26.6839 21.7956 27 21 27H6C5.20435 27 4.44129 26.6839 3.87868 26.1213C3.31607 25.5587 3 24.7956 3 24V9Z" fill="white" />
</svg>