<svg width="30" height="30" viewBox="0 0 30 30" fill="none" xmlns="http://www.w3.org/2000/svg">
  <path d="M20.379 5.37876C20.6557 5.09222 20.9868 4.86368 21.3528 4.70645C21.7188 4.54922 22.1125 4.46647 22.5108 4.463C22.9091 4.45954 23.3042 4.53545 23.6729 4.68629C24.0416 4.83713 24.3765 5.05989 24.6582 5.34157C24.9399 5.62325 25.1626 5.9582 25.3135 6.32689C25.4643 6.69558 25.5402 7.09062 25.5368 7.48896C25.5333 7.8873 25.4505 8.28096 25.2933 8.64697C25.1361 9.01298 24.9075 9.34402 24.621 9.62076L23.4315 10.8103L19.1895 6.56826L20.379 5.37876ZM17.0685 8.68926L4.5 21.2578V25.4998H8.742L21.312 12.9313L17.0685 8.68926Z" fill="white" />
</svg>