<svg width="200" height="200" viewBox="0 0 200 200" fill="none" xmlns="http://www.w3.org/2000/svg">
  <path fill-rule="evenodd" clip-rule="evenodd" d="M40 30C34.6957 30 29.6086 32.1071 25.8579 35.8579C22.1071 39.6086 20 44.6957 20 50V150C20 155.304 22.1071 160.391 25.8579 164.142C29.6086 167.893 34.6957 170 40 170H160C165.304 170 170.391 167.893 174.142 164.142C177.893 160.391 180 155.304 180 150V50C180 44.6957 177.893 39.6086 174.142 35.8579C170.391 32.1071 165.304 30 160 30H40ZM160 150H40L80 70L110 130L130 90L160 150Z" fill="#31572C" />
</svg>