<svg width="25" height="25" viewBox="0 0 25 25" fill="none" xmlns="http://www.w3.org/2000/svg">
  <path d="M12.5 15C13.163 15 13.7989 14.7366 14.2678 14.2678C14.7366 13.7989 15 13.163 15 12.5C15 11.837 14.7366 11.2011 14.2678 10.7322C13.7989 10.2634 13.163 10 12.5 10C11.837 10 11.2011 10.2634 10.7322 10.7322C10.2634 11.2011 10 11.837 10 12.5C10 13.163 10.2634 13.7989 10.7322 14.2678C11.2011 14.7366 11.837 15 12.5 15Z" fill="#344E41" />
  <path fill-rule="evenodd" clip-rule="evenodd" d="M0.572495 12.5C2.16499 7.42875 6.90249 3.75 12.5 3.75C18.0975 3.75 22.835 7.42875 24.4275 12.5C22.835 17.5713 18.0975 21.25 12.5 21.25C6.90249 21.25 2.16499 17.5713 0.572495 12.5ZM17.5 12.5C17.5 13.8261 16.9732 15.0979 16.0355 16.0355C15.0978 16.9732 13.8261 17.5 12.5 17.5C11.1739 17.5 9.90214 16.9732 8.96446 16.0355C8.02678 15.0979 7.49999 13.8261 7.49999 12.5C7.49999 11.1739 8.02678 9.90215 8.96446 8.96447C9.90214 8.02678 11.1739 7.5 12.5 7.5C13.8261 7.5 15.0978 8.02678 16.0355 8.96447C16.9732 9.90215 17.5 11.1739 17.5 12.5Z" fill="#344E41" />
</svg>