<svg width="250" height="250" viewBox="0 0 250 250" fill="none" xmlns="http://www.w3.org/2000/svg">
<g clip-path="url(#clip0_2011_179)">
<path fill-rule="evenodd" clip-rule="evenodd" d="M62.5 0C97.0175 0 125 27.9822 125 62.5V0H187.5C222.017 0 250 27.9822 250 62.5C250 97.0175 222.017 125 187.5 125C222.017 125 250 152.983 250 187.5C250 204.639 243.101 220.168 231.928 231.459L231.694 231.694L231.487 231.901C220.193 243.089 204.654 250 187.5 250C170.463 250 155.018 243.183 143.744 232.128C143.598 231.984 143.451 231.839 143.306 231.694C143.169 231.557 143.033 231.42 142.897 231.282C131.828 220.006 125 204.55 125 187.5C125 222.017 97.0175 250 62.5 250C27.9822 250 0 222.017 0 187.5V125H62.5C27.9822 125 0 97.0175 0 62.5C0 27.9822 27.9822 0 62.5 0ZM112.5 62.5C112.5 90.1144 90.1144 112.5 62.5 112.5V12.5C90.1144 12.5 112.5 34.8857 112.5 62.5ZM237.5 187.5C237.5 159.886 215.114 137.5 187.5 137.5C159.886 137.5 137.5 159.886 137.5 187.5H237.5ZM12.5 137.5V187.5C12.5 215.114 34.8857 237.5 62.5 237.5C90.1144 237.5 112.5 215.114 112.5 187.5V137.5H12.5ZM137.5 112.5V12.5H187.5C215.114 12.5 237.5 34.8857 237.5 62.5C237.5 90.1144 215.114 112.5 187.5 112.5H137.5Z" fill="#26312B"/>
</g>
<defs>
<clipPath id="clip0_2011_179">
<rect width="250" height="250" fill="white"/>
</clipPath>
</defs>
</svg>
