<svg width="31" height="30" viewBox="0 0 31 30" fill="none" xmlns="http://www.w3.org/2000/svg">
  <path d="M14 3C13.2044 3 12.4413 3.31607 11.8787 3.87868C11.3161 4.44129 11 5.20435 11 6V18C11 18.7956 11.3161 19.5587 11.8787 20.1213C12.4413 20.6839 13.2044 21 14 21H23C23.7956 21 24.5587 20.6839 25.1213 20.1213C25.6839 19.5587 26 18.7956 26 18V9.621C25.9998 8.82542 25.6836 8.06248 25.121 7.5L21.5 3.879C20.9375 3.31635 20.1746 3.00017 19.379 3H14Z" fill="white" />
  <path d="M5 12C5 11.2044 5.31607 10.4413 5.87868 9.87868C6.44129 9.31607 7.20435 9 8 9V24H20C20 24.7956 19.6839 25.5587 19.1213 26.1213C18.5587 26.6839 17.7956 27 17 27H8C7.20435 27 6.44129 26.6839 5.87868 26.1213C5.31607 25.5587 5 24.7956 5 24V12Z" fill="white" />
</svg>