<svg width="31" height="30" viewBox="0 0 31 30" fill="none" xmlns="http://www.w3.org/2000/svg">
<path fill-rule="evenodd" clip-rule="evenodd" d="M15.5 13.5C16.6935 13.5 17.8381 13.0259 18.682 12.182C19.5259 11.3381 20 10.1935 20 9C20 7.80653 19.5259 6.66193 18.682 5.81802C17.8381 4.97411 16.6935 4.5 15.5 4.5C14.3065 4.5 13.1619 4.97411 12.318 5.81802C11.4741 6.66193 11 7.80653 11 9C11 10.1935 11.4741 11.3381 12.318 12.182C13.1619 13.0259 14.3065 13.5 15.5 13.5ZM5 27C5 25.6211 5.27159 24.2557 5.79927 22.9818C6.32694 21.7079 7.10036 20.5504 8.07538 19.5754C9.05039 18.6004 10.2079 17.8269 11.4818 17.2993C12.7557 16.7716 14.1211 16.5 15.5 16.5C16.8789 16.5 18.2443 16.7716 19.5182 17.2993C20.7921 17.8269 21.9496 18.6004 22.9246 19.5754C23.8996 20.5504 24.6731 21.7079 25.2007 22.9818C25.7284 24.2557 26 25.6211 26 27H5Z" fill="white"/>
</svg>
