<svg width="31" height="30" viewBox="0 0 31 30" fill="none" xmlns="http://www.w3.org/2000/svg">
  <path fill-rule="evenodd" clip-rule="evenodd" d="M15.5 4.5C15.8978 4.5 16.2794 4.65804 16.5607 4.93934C16.842 5.22064 17 5.60218 17 6V13.5H24.5C24.8978 13.5 25.2794 13.658 25.5607 13.9393C25.842 14.2206 26 14.6022 26 15C26 15.3978 25.842 15.7794 25.5607 16.0607C25.2794 16.342 24.8978 16.5 24.5 16.5H17V24C17 24.3978 16.842 24.7794 16.5607 25.0607C16.2794 25.342 15.8978 25.5 15.5 25.5C15.1022 25.5 14.7206 25.342 14.4393 25.0607C14.158 24.7794 14 24.3978 14 24V16.5H6.5C6.10218 16.5 5.72064 16.342 5.43934 16.0607C5.15804 15.7794 5 15.3978 5 15C5 14.6022 5.15804 14.2206 5.43934 13.9393C5.72064 13.658 6.10218 13.5 6.5 13.5H14V6C14 5.60218 14.158 5.22064 14.4393 4.93934C14.7206 4.65804 15.1022 4.5 15.5 4.5Z" fill="white" />
</svg>