<svg width="55" height="54" viewBox="0 0 55 54" fill="none" xmlns="http://www.w3.org/2000/svg">
  <path d="M27.5 14.3111C27.5 21.2851 21.8464 26.9387 14.8724 26.9387H2.2449V14.3111C2.2449 7.33713 7.89844 1.68359 14.8724 1.68359C21.8464 1.68359 27.5 7.33713 27.5 14.3111Z" fill="#132A13" />
  <path d="M27.5 39.5663C27.5 32.5923 33.1536 26.9387 40.1276 26.9387H52.7551V39.5663C52.7551 46.5403 47.1016 52.1938 40.1276 52.1938C33.1536 52.1938 27.5 46.5403 27.5 39.5663Z" fill="#132A13" />
  <path d="M2.2449 39.5663C2.2449 46.5403 7.89844 52.1938 14.8724 52.1938H27.5V39.5663C27.5 32.5923 21.8464 26.9387 14.8724 26.9387C7.89844 26.9387 2.2449 32.5923 2.2449 39.5663Z" fill="#132A13" />
  <path d="M52.7551 14.3111C52.7551 7.33713 47.1016 1.68359 40.1276 1.68359H27.5V14.3111C27.5 21.2851 33.1536 26.9387 40.1276 26.9387C47.1016 26.9387 52.7551 21.2851 52.7551 14.3111Z" fill="#132A13" />
</svg>