<svg width="21" height="21" viewBox="0 0 21 21" fill="none" xmlns="http://www.w3.org/2000/svg">
<path fill-rule="evenodd" clip-rule="evenodd" d="M5.159 4.71544C5.34653 4.52797 5.60083 4.42266 5.866 4.42266C6.13116 4.42266 6.38547 4.52797 6.573 4.71544L10.866 9.00844L15.159 4.71544C15.2512 4.61993 15.3616 4.54375 15.4836 4.49134C15.6056 4.43893 15.7368 4.41135 15.8696 4.41019C16.0024 4.40904 16.1341 4.43434 16.257 4.48462C16.3798 4.5349 16.4915 4.60916 16.5854 4.70305C16.6793 4.79694 16.7535 4.90859 16.8038 5.03149C16.8541 5.15439 16.8794 5.28607 16.8782 5.41885C16.8771 5.55163 16.8495 5.68284 16.7971 5.80485C16.7447 5.92685 16.6685 6.0372 16.573 6.12944L12.28 10.4224L16.573 14.7154C16.7552 14.904 16.8559 15.1566 16.8537 15.4188C16.8514 15.681 16.7462 15.9319 16.5608 16.1173C16.3754 16.3027 16.1246 16.4078 15.8624 16.4101C15.6002 16.4124 15.3476 16.3116 15.159 16.1294L10.866 11.8364L6.573 16.1294C6.38439 16.3116 6.13179 16.4124 5.8696 16.4101C5.6074 16.4078 5.35659 16.3027 5.17118 16.1173C4.98577 15.9319 4.8806 15.681 4.87832 15.4188C4.87604 15.1566 4.97684 14.904 5.159 14.7154L9.452 10.4224L5.159 6.12944C4.97153 5.94192 4.86621 5.68761 4.86621 5.42244C4.86621 5.15728 4.97153 4.90297 5.159 4.71544Z" fill="black"/>
</svg>
