<svg width="56" height="61" viewBox="0 0 56 61" fill="none" xmlns="http://www.w3.org/2000/svg">
<path d="M39.3401 1.03232C37.8239 1.42887 36.8909 2.45522 36.8909 3.71483C36.8909 5.13772 37.3807 5.34765 40.6697 5.34765C42.1859 5.34765 43.4222 5.41763 43.4222 5.48761C43.4222 5.55759 40.4131 8.70662 36.7276 12.4621L30.033 19.2967L28.7734 18.5736C27.7004 17.9671 27.1639 17.8505 25.5544 17.7571C23.8749 17.6638 23.4784 17.7338 22.4054 18.2237C18.9998 19.8098 17.5302 23.2155 18.6965 26.8077L19.233 28.4638L15.8741 31.8228C14.0313 33.6889 12.4218 35.2051 12.2818 35.2051C12.1419 35.2051 11.5587 34.9718 10.9756 34.6919C9.52936 33.9455 6.24038 33.9221 4.67753 34.6453C2.46155 35.6716 0.968674 37.4677 0.362195 39.917C-0.547524 43.4625 1.03865 46.9381 4.35096 48.6876C5.37731 49.2474 5.77385 49.3174 7.84988 49.3174C9.99588 49.3174 10.2758 49.2707 11.4421 48.6176C14.6378 46.8448 16.1073 43.2293 15.1743 39.4738L14.8944 38.4241L18.5332 34.7852L22.1721 31.1463L23.0818 31.4263C24.2948 31.7995 26.7674 31.7528 27.8637 31.3796C29.9864 30.6098 31.2926 28.9537 32.0157 26.1079C32.8788 22.5857 33.3453 21.9792 39.9933 15.3779C43.3056 12.1122 46.128 9.38307 46.2447 9.35975C46.3613 9.31309 46.4546 9.56968 46.4546 9.9429C46.4546 11.4824 47.1544 14.3282 47.6442 14.7248C48.2274 15.2146 48.4606 15.2379 49.4403 14.888C50.9332 14.3749 51.0032 14.0483 51.0732 7.37703C51.1431 2.94506 51.0732 1.26558 50.8866 1.009C50.49 0.565801 41.0663 0.565801 39.3401 1.03232ZM26.3941 22.4923C27.3738 22.9822 27.7937 23.7286 27.7937 24.8949C27.7937 25.758 27.6537 26.0612 27.0006 26.7144C26.3475 27.3675 26.0209 27.5075 25.2278 27.5075C22.7786 27.5075 21.5656 24.6617 23.3151 23.0289C24.3414 22.0725 25.2745 21.9092 26.3941 22.4923Z" fill="#1C4D30"/>
<path d="M51.1898 24.4637L50.6533 24.5571V39.2525C50.6533 53.5048 50.63 53.9713 50.1868 54.8577C49.557 56.1173 48.2507 56.7704 46.6179 56.6771L45.4049 56.6071L45.2883 45.294L45.1717 34.0041L44.5885 33.7009C44.192 33.491 43.1656 33.421 41.4395 33.4443L38.8736 33.5143L38.8037 44.9907L38.757 56.4905L38.2205 56.6071C37.9406 56.6771 36.611 56.7238 35.2581 56.6771L32.8088 56.6071L32.6922 50.1225C32.5989 44.7108 32.5289 43.6145 32.2257 43.4279C31.6892 43.078 26.6974 43.1246 26.4641 43.4745C26.3708 43.6378 26.2309 46.6702 26.1609 50.1925L26.0443 56.6071L17.6469 56.6538C9.41275 56.7238 9.24947 56.7238 8.85292 57.2136C8.57301 57.5402 8.43305 58.1 8.43305 58.9164C8.43305 61.1324 6.35703 60.9458 28.96 60.8758L48.9039 60.8058L50.4434 60.0594C52.1229 59.243 53.5691 57.8434 54.4088 56.2339L54.9687 55.2076L55.0386 39.859L55.1086 24.5337H53.7091C52.9393 24.5337 52.1928 24.4871 52.0062 24.4404C51.843 24.3938 51.4697 24.4171 51.1898 24.4637ZM52.5194 25.0002C52.5194 25.1169 52.4728 25.2335 52.4261 25.2335C52.3561 25.2335 52.2395 25.1169 52.1695 25.0002C52.0995 24.8603 52.3095 26.3063 52.4261 26.3063C52.5661 26.3063 52.5194 24.8603 52.5194 25.0002ZM51.2831 28.0793C51.2132 28.2659 51.1432 28.1959 51.1432 27.9393C51.1198 27.6827 51.0149 29.1871 51.0848 29.2804C51.1548 29.3504 51.3531 27.916 51.2831 28.0793ZM41.5561 34.7972C41.5561 35.2404 40.903 35.0305 40.7864 34.564C40.6931 34.1674 40.7397 34.1441 41.1129 34.354C41.3462 34.4706 41.5561 34.6806 41.5561 34.7972ZM44.8743 56.4905C44.9442 56.6538 45.23 34.0334 44.9967 34.1033C44.7168 34.1733 39.206 34.185 39.1361 33.9284C39.0661 33.6252 38.7978 54.9741 39.101 54.9974C39.3343 55.0208 44.8276 56.3505 44.8743 56.4905ZM44.7518 35.3104C44.6818 35.4737 44.6352 35.357 44.6352 35.0305C44.6352 34.7039 44.6818 34.5873 44.7518 34.7272C44.7985 34.8905 44.7985 35.1704 44.7518 35.3104ZM40.8564 35.497C40.8564 35.6136 41.1363 35.7536 41.5095 35.7536L42.1393 35.8002L41.5095 35.8935C40.9263 35.9868 40.8797 36.0568 41.0196 36.71C41.1129 37.2231 41.0896 37.3864 40.903 37.2698C40.7397 37.1765 40.6231 36.8499 40.6231 36.5467C40.6231 36.1735 40.5065 36.0335 40.2266 36.0802C39.9933 36.1035 39.9466 36.0802 40.1099 36.0335C40.2499 35.9635 40.3898 35.7769 40.3898 35.5903C40.3898 35.4037 40.5065 35.2637 40.6231 35.2637C40.7631 35.2637 40.8564 35.357 40.8564 35.497ZM52.916 35.7769C52.846 35.9635 52.776 35.8935 52.776 35.637C52.7527 35.3804 52.5019 37.0597 52.5719 37.153C52.6419 37.2229 52.9859 35.6136 52.916 35.7769ZM44.3319 36.2901C44.5419 36.5233 44.5186 36.64 44.262 36.7333C43.8888 36.8966 43.6555 36.71 43.6555 36.2668C43.6555 35.8702 43.9821 35.8702 44.3319 36.2901ZM42.4192 37.1765C42.3492 37.3631 42.2792 37.2931 42.2792 37.0365C42.2559 36.7799 42.3259 36.64 42.3959 36.7333C42.4659 36.8033 42.4892 37.0132 42.4192 37.1765ZM43.189 36.8732C43.189 37.0132 43.0957 37.1765 42.9557 37.2465C42.8391 37.3164 42.7224 37.2231 42.7224 37.0365C42.7224 36.8266 42.8391 36.6633 42.9557 36.6633C43.0957 36.6633 43.189 36.7566 43.189 36.8732ZM44.7285 37.503C44.6352 37.713 44.5186 37.8529 44.4719 37.783C44.4019 37.713 44.4019 37.4797 44.4952 37.2698C44.5885 37.0598 44.7052 36.9199 44.7518 36.9899C44.8218 37.0598 44.8218 37.2931 44.7285 37.503ZM43.7721 37.5964C43.8421 37.713 43.7954 37.8296 43.6788 37.8296C43.5389 37.8296 43.4222 37.713 43.4222 37.5964C43.4222 37.4564 43.4689 37.3631 43.5155 37.3631C43.5855 37.3631 43.7021 37.4564 43.7721 37.5964ZM44.7751 38.4594C44.8218 38.6694 44.6119 38.7627 44.1453 38.7627C43.6088 38.7627 43.4689 38.6694 43.5855 38.3894C43.7255 37.9929 44.6119 38.0395 44.7751 38.4594ZM40.6231 38.9959C40.1799 39.2992 39.9233 39.2992 39.9233 38.9959C39.9233 38.856 40.1566 38.7627 40.4598 38.7627C40.8797 38.7627 40.903 38.8093 40.6231 38.9959ZM40.8564 40.1622C40.8564 40.2789 40.6931 40.3255 40.5065 40.2555C40.3199 40.1622 40.1566 40.0689 40.1566 40.0223C40.1566 39.9756 40.3199 39.929 40.5065 39.929C40.6931 39.929 40.8564 40.0223 40.8564 40.1622ZM44.5885 40.0223C44.5885 40.0922 44.4952 40.2089 44.3553 40.2789C44.2386 40.3488 44.122 40.3022 44.122 40.1855C44.122 40.0456 44.2386 39.929 44.3553 39.929C44.4952 39.929 44.5885 39.9756 44.5885 40.0223ZM40.2732 40.862C40.2032 40.9786 39.97 41.0953 39.7834 41.0953C39.5967 41.0953 39.4568 40.9786 39.4568 40.862C39.4568 40.722 39.6667 40.6287 39.9466 40.6287C40.2032 40.6287 40.3432 40.722 40.2732 40.862ZM42.9557 40.9553C42.9557 41.0253 42.8624 41.1419 42.7224 41.2119C42.6058 41.2819 42.4892 41.2352 42.4892 41.1186C42.4892 40.9786 42.6058 40.862 42.7224 40.862C42.8624 40.862 42.9557 40.9087 42.9557 40.9553ZM53.2717 42.2264C53.3416 42.343 53.1259 41.7951 53.0093 41.7951C52.8693 41.7951 52.7527 41.6784 52.7527 41.5618C52.7527 41.4218 52.8751 43.8009 52.9218 43.8009C52.9917 43.8009 53.2017 42.0864 53.2717 42.2264ZM39.7834 41.9117C39.69 42.0983 39.5967 42.2616 39.5501 42.2616C39.5034 42.2616 39.4568 42.0983 39.4568 41.9117C39.4568 41.7251 39.5501 41.5618 39.6901 41.5618C39.8067 41.5618 39.8533 41.7251 39.7834 41.9117ZM41.7894 42.1683C41.7894 42.2616 41.6028 42.2382 41.3929 42.1683C41.1829 42.075 40.9263 42.1449 40.833 42.3082C40.7397 42.4715 40.5764 42.5182 40.5065 42.4482C40.1799 42.1449 40.9497 41.6084 41.3929 41.8184C41.6028 41.9583 41.7894 42.0983 41.7894 42.1683ZM42.8391 43.4512C42.9324 43.7311 42.8857 44.0577 42.7224 44.221C42.5358 44.4076 42.4892 44.3842 42.6291 44.0577C42.6991 43.8477 42.6525 43.4979 42.4892 43.3112C42.3026 43.1013 42.3026 42.9614 42.4425 42.9614C42.5825 42.9614 42.7691 43.1713 42.8391 43.4512ZM31.7592 43.6611C31.7592 43.7778 31.9458 44.7341 31.7592 44.7341C31.5726 44.7341 32.1324 43.6729 32.1324 43.5562C32.1324 43.4163 27.8637 43.7257 28.0503 43.7257C28.2369 43.7257 31.7592 43.5212 31.7592 43.6611ZM27.1406 43.9411C26.9773 44.1043 26.8607 44.4309 26.8607 44.6875C26.8607 44.9208 26.7907 45.084 26.7207 44.9907C26.4875 44.7575 26.8374 43.6611 27.1406 43.6611C27.3505 43.6611 27.3505 43.7311 27.1406 43.9411ZM28.3769 44.5126C28.3769 44.7226 28.7501 44.0577 28.4702 43.8711C28.2369 43.7311 28.037 44.0753 28.5735 44.0753C28.97 44.0753 28.3769 44.466 28.3769 44.5126ZM40.8797 44.1976C40.6464 44.4076 40.6231 44.3842 40.7631 44.0577C40.833 43.8244 40.973 43.7078 41.043 43.7778C41.1129 43.8477 41.043 44.0344 40.8797 44.1976ZM40.2732 44.1043C40.3432 44.221 40.2965 44.3842 40.1566 44.4776C40.0399 44.5475 39.9233 44.4542 39.9233 44.2676C39.9233 43.8477 40.0633 43.7778 40.2732 44.1043ZM27.9803 44.6875C27.8171 44.8741 27.6071 44.9674 27.5138 44.8974C27.3972 44.8508 27.3272 44.9207 27.3272 45.084C27.3272 45.2473 27.2572 45.294 27.1639 45.2007C27.0473 45.1074 27.1872 44.8741 27.4205 44.6875C28.0037 44.2676 28.3769 44.2676 27.9803 44.6875ZM29.5199 44.7341C29.7298 44.9207 29.8464 45.1773 29.7764 45.294C29.7065 45.4106 29.7531 45.5506 29.8698 45.6439C30.033 45.7372 30.0097 45.9938 29.8464 46.3436C29.5898 46.9268 29.1933 47.1367 29.1933 46.6935C29.1933 46.5536 29.3099 46.4603 29.4266 46.4603C29.5665 46.4603 29.6598 46.297 29.6598 46.0871C29.6598 45.8305 29.5199 45.7605 29.1933 45.8771C28.6335 46.0637 28.5402 45.5739 29.1 45.3639C29.4266 45.2473 29.4032 45.154 28.9367 44.8041C28.4935 44.4542 28.4702 44.3609 28.7734 44.3609C28.9834 44.3609 29.3333 44.5242 29.5199 44.7341ZM31.7592 44.8741C31.7592 44.9674 31.6192 45.0607 31.4793 45.084C31.246 45.084 31.246 45.1307 31.4793 45.224C31.6192 45.2706 31.7592 45.4806 31.7592 45.6672C31.7592 45.9238 31.6659 45.9004 31.3393 45.5739C31.106 45.3639 30.9428 45.0607 30.9894 44.9207C31.0827 44.6408 31.7592 44.5709 31.7592 44.8741ZM41.5561 44.8274C41.5561 44.9441 41.3929 45.0607 41.2062 45.0607C41.0196 45.0607 40.8564 44.9441 40.8564 44.8274C40.8564 44.6875 41.0196 44.5942 41.2062 44.5942C41.3929 44.5942 41.5561 44.6875 41.5561 44.8274ZM43.7721 45.0607C43.8421 45.1773 43.7954 45.294 43.6788 45.294C43.5389 45.294 43.4222 45.1773 43.4222 45.0607C43.4222 44.9207 43.4689 44.8274 43.5155 44.8274C43.5855 44.8274 43.7021 44.9207 43.7721 45.0607ZM26.7907 45.8071C26.7207 45.9938 26.6507 45.9238 26.6507 45.6672C26.6274 45.4106 26.6974 45.2706 26.7674 45.3639C26.8374 45.4339 26.8607 45.6439 26.7907 45.8071ZM28.0503 45.5039C27.7471 45.6905 27.7471 45.7838 28.0503 46.1337C28.3302 46.4836 28.3302 46.5069 27.8637 46.367C27.4905 46.2503 27.3272 46.3203 27.2572 46.6236C27.1872 46.8801 27.1406 46.8102 27.1173 46.3903C27.0939 45.9938 27.1872 45.7838 27.3272 45.8771C27.4672 45.9471 27.5605 45.8538 27.5605 45.6672C27.5605 45.4573 27.7471 45.294 27.9803 45.294C28.3069 45.294 28.3069 45.3406 28.0503 45.5039ZM43.189 45.3873C43.189 45.5972 42.4892 45.7138 42.3726 45.5272C42.2792 45.3873 42.4425 45.294 42.6991 45.294C42.979 45.294 43.189 45.3406 43.189 45.3873ZM31.1294 46.1104C31.0594 46.3203 30.9428 46.4369 30.8961 46.367C30.8261 46.297 30.8495 46.157 30.9428 46.0171C31.1527 45.6439 31.2926 45.7138 31.1294 46.1104ZM26.7907 50.2391C26.7441 50.9156 26.7207 50.4257 26.7207 49.1428C26.7207 47.8598 26.7441 47.3 26.7907 47.9065C26.8374 48.513 26.8374 49.5626 26.7907 50.2391ZM51.2831 47.44C51.2132 47.6266 51.1432 47.5566 51.1432 47.3C51.1198 47.0434 51.0149 48.1687 51.0848 48.262C51.1548 48.332 51.3531 47.2767 51.2831 47.44ZM27.6071 48.373C27.6771 48.9795 27.6538 49.4227 27.5371 49.3527C27.4205 49.2827 27.3272 48.7462 27.3272 48.1631C27.3272 46.8102 27.4672 46.9268 27.6071 48.373ZM29.1933 47.5099C29.1933 47.6966 29.03 47.8598 28.8434 47.8598C28.6335 47.8598 28.5635 47.7199 28.6335 47.5099C28.7268 47.3233 28.8667 47.1601 28.9834 47.1601C29.1 47.1601 29.1933 47.3233 29.1933 47.5099ZM32.1324 47.7899C31.8991 48.0231 31.6892 47.6732 31.8991 47.37C32.0391 47.1134 32.0857 47.1134 32.179 47.37C32.2257 47.5333 32.2024 47.7199 32.1324 47.7899ZM41.043 47.37C41.2996 47.5333 41.2762 47.5799 40.973 47.6966C40.7631 47.7899 40.6464 47.7665 40.7397 47.6499C40.8097 47.5333 40.7164 47.37 40.5764 47.3233C40.4132 47.2534 40.3898 47.1834 40.5065 47.1834C40.6464 47.1834 40.8797 47.2534 41.043 47.37ZM30.0097 47.6033C30.0797 47.7199 30.033 47.8832 29.8931 47.9765C29.7764 48.0464 29.6598 47.9531 29.6598 47.7665C29.6598 47.3467 29.7998 47.2767 30.0097 47.6033ZM39.4568 47.6266C39.4568 47.7432 39.4101 47.8598 39.3635 47.8598C39.2935 47.8598 39.1769 47.7432 39.1069 47.6266C39.0369 47.4866 39.0836 47.3933 39.2002 47.3933C39.3402 47.3933 39.4568 47.4866 39.4568 47.6266ZM51.2831 48.9562C51.2132 49.1894 51.1665 49.0028 51.1665 48.5596C51.1665 48.1164 51.0149 49.1892 51.0848 49.3992C51.1315 49.6324 51.3298 48.7462 51.2831 48.9562ZM28.2603 48.4197C28.2603 48.4896 28.1669 48.6063 28.027 48.6763C27.9104 48.7462 27.7937 48.6996 27.7937 48.5829C27.7937 48.443 27.9104 48.3264 28.027 48.3264C28.1669 48.3264 28.2603 48.373 28.2603 48.4197ZM40.5531 48.6996C40.4831 48.7696 40.2732 48.7929 40.1099 48.7229C39.9233 48.6529 39.9933 48.5829 40.2499 48.5829C40.5065 48.5596 40.6464 48.6296 40.5531 48.6996ZM32.2024 49.5393C32.1557 50.1925 32.1557 50.2158 32.0624 49.7259C31.9924 49.3994 31.8291 49.0728 31.6659 48.9795C31.5026 48.8629 31.5492 48.7929 31.8291 48.7929C32.1324 48.7929 32.2257 48.9795 32.2024 49.5393ZM53.1842 50.5363C53.1842 50.6529 53.8257 49.7259 53.6857 49.7259C53.5691 49.7259 53.4525 49.6093 53.4525 49.4927C53.4525 49.3527 52.6302 51.8484 52.7468 51.8484C52.8868 51.8484 53.1842 50.3964 53.1842 50.5363ZM28.96 49.8192C28.96 50.0758 28.5168 50.1691 28.3769 49.9592C28.3069 49.8426 28.4002 49.7259 28.5868 49.7259C28.7968 49.7259 28.96 49.7726 28.96 49.8192ZM27.887 50.3324C27.957 50.519 27.9337 50.6123 27.7937 50.5423C27.6538 50.4724 27.5605 50.3091 27.5605 50.1691C27.5605 49.8426 27.7237 49.9125 27.887 50.3324ZM29.8931 50.3091C29.8931 50.4957 29.7298 50.659 29.5199 50.659C29.1933 50.659 29.1933 50.589 29.4266 50.3091C29.5898 50.1225 29.7531 49.9592 29.7998 49.9592C29.8464 49.9592 29.8931 50.1225 29.8931 50.3091ZM43.8188 51.4054C43.7488 51.592 43.6788 51.522 43.6788 51.2655C43.6555 51.0089 43.7255 50.8689 43.7954 50.9622C43.8654 51.0322 43.8888 51.2421 43.8188 51.4054ZM31.4559 51.6387C31.386 51.8253 31.316 51.7553 31.316 51.4987C31.2926 51.2421 31.3626 51.1022 31.4326 51.1955C31.5026 51.2655 31.5259 51.4754 31.4559 51.6387ZM26.7907 52.3385C26.7207 52.5251 26.6507 52.4551 26.6507 52.1985C26.6274 51.9419 26.6974 51.802 26.7674 51.8953C26.8374 51.9652 26.8607 52.1752 26.7907 52.3385ZM32.2257 52.5251C32.2257 52.7817 32.1324 52.9916 32.0158 52.9916C31.8991 52.9916 31.8525 52.7817 31.9225 52.5251C31.9924 52.2685 32.0857 52.0585 32.1324 52.0585C32.179 52.0585 32.2257 52.2685 32.2257 52.5251ZM54.5488 53.5048C54.4788 53.668 54.4322 53.5514 54.4322 53.2248C54.4322 52.8983 53.9015 54.3326 53.9714 54.4726C54.0181 54.6359 54.5954 53.3648 54.5488 53.5048ZM31.1294 53.1549C30.9661 53.2015 30.6862 53.2015 30.5462 53.1549C30.3829 53.0849 30.4996 53.0382 30.8261 53.0382C31.1527 53.0382 31.2693 53.0849 31.1294 53.1549ZM44.7518 53.5048C44.6818 53.6914 44.6119 53.6214 44.6119 53.3648C44.5885 53.1082 44.6585 52.9683 44.7285 53.0616C44.7985 53.1315 44.8218 53.3415 44.7518 53.5048ZM51.7497 53.738C51.6797 53.9246 51.6097 53.8547 51.6097 53.5981C51.5864 53.3415 51.1432 54.9041 51.2132 54.9974C51.2831 55.0674 51.8196 53.5747 51.7497 53.738ZM27.7237 54.6711C27.6538 54.8343 27.6071 54.7177 27.6071 54.3912C27.6071 54.0646 27.6538 53.948 27.7237 54.0879C27.7704 54.2512 27.7704 54.5311 27.7237 54.6711ZM32.2257 54.4845C32.2257 54.5311 32.0624 54.6477 31.8525 54.7177C31.6659 54.7877 31.5726 54.7644 31.6425 54.6244C31.7825 54.3912 32.2257 54.2978 32.2257 54.4845ZM26.54 43.6611C26.4933 43.9877 26.1668 57.1903 26.33 57.4235C26.6333 57.7734 32.9766 57.7268 32.6267 57.4235C32.2069 57.097 32.1152 44.256 32.4884 44.256C32.5817 44.256 26.6099 43.3346 26.54 43.6611ZM27.7704 55.5808C27.4205 55.7907 27.024 55.6274 27.2106 55.3242C27.2806 55.2076 27.5138 55.1842 27.7004 55.2542C27.9803 55.3475 28.0037 55.4408 27.7704 55.5808ZM29.5898 56.0706C29.5199 56.2572 29.4499 56.1873 29.4499 55.9307C29.4266 55.6741 29.4965 55.5341 29.5665 55.6274C29.6365 55.6974 29.6598 55.9074 29.5898 56.0706ZM53.0093 56.5605C52.776 56.7704 52.7527 56.7471 52.8926 56.4205C52.9626 56.1873 52.2395 57.3767 52.3095 57.4467C52.3794 57.5167 53.1726 56.3972 53.0093 56.5605ZM30.8261 56.8752C30.7561 57.0851 30.0097 57.167 29.9631 57.097C29.8931 57.027 29.9164 56.887 30.0097 56.7471C30.2196 56.3739 30.9894 56.4787 30.8261 56.8752ZM17.7635 57.7501C17.7635 57.96 16.7372 57.7968 16.4572 57.5402C16.2473 57.3769 16.3173 57.2603 16.6905 57.167C17.1337 57.0737 17.7635 57.4002 17.7635 57.7501ZM24.0615 57.3069C24.3181 57.6102 24.2948 57.6335 23.9682 57.5169C23.7117 57.4235 23.595 57.4935 23.595 57.7734C23.595 57.9834 23.4784 58.0767 23.3618 58.0067C23.1985 57.9134 23.1985 57.7035 23.3618 57.4002C23.665 56.8637 23.6883 56.8637 24.0615 57.3069ZM43.0723 57.1903C43.1423 57.3069 43.0957 57.4235 42.979 57.4235C42.8391 57.4235 42.7224 57.3069 42.7224 57.1903C42.7224 57.0503 42.7691 56.957 42.8158 56.957C42.8857 56.957 43.0024 57.0503 43.0723 57.1903ZM14.9644 57.4235C14.7778 57.5402 14.4045 57.6335 14.148 57.6335C13.7747 57.6102 13.7747 57.5868 14.2646 57.4235C15.081 57.167 15.3842 57.167 14.9644 57.4235ZM17.7635 58.3099C17.3436 58.7531 17.6935 58.6365 17.2503 58.3799C16.9238 58.2166 16.8771 58.17 17.157 58.24C17.4369 58.3099 17.7402 58.1467 18.0667 57.7268C18.3467 57.4002 18.6032 57.2369 18.6499 57.3769C18.6965 57.5169 18.0201 58.03 17.7635 58.3099ZM19.6296 57.4002C19.6296 57.5169 19.6996 57.7968 19.7929 58.03C19.9328 58.4032 19.9095 58.4266 19.6063 58.1233C19.2097 57.7734 19.1164 57.1903 19.443 57.1903C19.5363 57.1903 19.6296 57.2836 19.6296 57.4002ZM22.7786 57.4235C22.6853 57.5635 23.7117 57.0504 23.595 56.9804C23.4784 56.8871 22.1955 57.5169 22.1955 57.6335C22.1955 57.7734 21.8456 57.8667 21.449 57.8667C20.7259 57.8201 24.4651 58.4499 25.0716 58.3566C25.4215 58.3099 21.9622 57.5169 21.9622 57.4002C21.9622 57.2836 22.1721 57.1903 22.452 57.1903C22.7086 57.1903 22.8486 57.3069 22.7786 57.4235ZM33.6253 57.4235C33.6253 57.5402 33.5786 57.6568 33.532 57.6568C33.462 57.6568 33.3453 57.5402 33.2754 57.4235C33.2054 57.2836 33.252 57.1903 33.3687 57.1903C33.5086 57.1903 33.6253 57.2836 33.6253 57.4235ZM28.96 58.03C28.96 58.2166 28.8667 58.3099 28.7268 58.24C28.6101 58.17 28.4935 57.9367 28.4935 57.7501C28.4935 57.5635 28.6101 57.4702 28.7268 57.5402C28.8667 57.6102 28.96 57.8434 28.96 58.03ZM31.6192 57.7968C31.6892 57.9834 31.6659 58.0767 31.5259 58.0067C31.386 57.9367 31.2926 57.7734 31.2926 57.6335C31.2926 57.3069 31.4559 57.3769 31.6192 57.7968ZM38.2905 57.5169C38.2905 57.5868 38.1972 57.7035 38.0572 57.7734C37.9406 57.8434 37.824 57.7968 37.824 57.6801C37.824 57.5402 37.9406 57.4235 38.0572 57.4235C38.1972 57.4235 38.2905 57.4702 38.2905 57.5169ZM16.014 57.8901C15.9441 58.0067 15.7808 58.1233 15.6408 58.1233C15.5242 58.1233 15.4309 58.0067 15.4309 57.8901C15.4309 57.7501 15.6 58.4149 15.81 58.4149C15.9966 58.4149 16.084 57.7501 16.014 57.8901ZM25.2279 58.03C25.2279 58.0767 25.0646 58.1233 24.878 58.1233C24.6914 58.1233 26.0443 59.1264 26.0443 58.9864C26.0443 58.8698 24.6914 57.7268 24.878 57.7968C25.0646 57.8901 25.2279 57.9834 25.2279 58.03ZM35.9579 57.9834C35.9579 58.0534 35.8646 58.17 35.7246 58.24C35.608 58.3099 35.4913 58.2633 35.4913 58.1467C35.4913 58.0067 35.608 57.8901 35.7246 57.8901C35.8646 57.8901 35.9579 57.9367 35.9579 57.9834ZM15.81 56.9278C15.6933 57.1378 8.4039 58.5201 9.04538 59.0798C8.9754 58.9865 26.056 57.1554 26.4525 57.1554C26.8374 56.718 15.8799 56.8345 15.81 56.9278ZM14.0313 58.24C13.9613 58.3099 13.6814 58.3566 13.5181 58.2866C13.3315 58.2166 13.4015 58.1467 13.6581 58.1467C13.9147 58.1233 14.1246 58.17 14.0313 58.24ZM19.3963 58.5899C19.7929 58.9864 19.7929 59.0564 19.4896 59.0564C19.2564 59.0564 19.1631 59.1963 19.2564 59.4063C19.3264 59.6162 19.2564 59.7562 19.0698 59.7562C18.8598 59.7562 18.7432 59.4762 18.7665 58.9397C18.7898 58.4965 18.8132 58.1233 18.8598 58.1233C18.9065 58.1233 19.1397 58.3333 19.3963 58.5899ZM21.0292 58.4732C21.0292 58.8698 21.4024 58.9397 21.6123 58.5899C21.7989 58.2866 22.662 58.2866 22.662 58.5899C22.662 58.7065 22.3821 58.8698 22.0322 58.9631C21.659 59.033 21.1458 59.1963 20.8425 59.313C20.1428 59.5929 20.0961 59.5929 20.0961 59.173C20.0961 58.9631 20.2361 58.8931 20.446 58.9631C20.6326 59.0564 20.7959 58.9864 20.7959 58.8464C20.7959 58.7065 20.6793 58.5899 20.5393 58.5899C20.4227 58.5899 20.376 58.4732 20.446 58.3566C20.6559 58.0067 21.0292 58.0767 21.0292 58.4732ZM32.459 58.3333C32.459 58.5899 31.7358 58.8931 31.5492 58.7065C31.4793 58.6365 31.5726 58.4732 31.7592 58.3566C32.2024 58.0767 32.459 58.0767 32.459 58.3333ZM33.7419 58.3566C33.8119 58.4732 33.7652 58.5899 33.6486 58.5899C33.5086 58.5899 33.392 58.4732 33.392 58.3566C33.392 58.2166 33.4387 58.1233 33.4853 58.1233C33.5553 58.1233 33.6719 58.2166 33.7419 58.3566ZM44.7518 58.2633C44.6818 58.3333 44.4719 58.3566 44.3086 58.2866C44.122 58.2166 44.192 58.1467 44.4486 58.1467C44.7052 58.1233 44.8451 58.1933 44.7518 58.2633ZM15.4309 58.4499C15.4309 58.5199 15.3376 58.6365 15.1976 58.7065C15.081 58.7765 14.9644 58.7298 14.9644 58.6132C14.9644 58.4732 15.081 58.3566 15.1976 58.3566C15.3376 58.3566 15.4309 58.4032 15.4309 58.4499ZM24.4114 58.5899C24.4814 58.7065 24.4581 58.8231 24.3181 58.8231C24.2015 58.8231 24.0382 59.0097 23.9916 59.2197C23.9216 59.4762 23.8749 59.3829 23.8516 58.9864C23.8283 58.3566 24.1315 58.1467 24.4114 58.5899ZM37.2175 58.9164C37.1475 59.1264 36.8443 59.2896 36.5644 59.2663C36.0745 59.2663 36.0745 59.2663 36.611 59.0097C36.8909 58.8698 37.1242 58.6365 37.1242 58.5199C37.1242 58.3799 37.1708 58.3333 37.2408 58.4032C37.3108 58.4732 37.3108 58.7065 37.2175 58.9164ZM14.0313 59.4529C14.0313 59.9194 13.9613 60.0127 13.7747 59.8261C13.6115 59.6629 13.5648 59.3829 13.6348 59.1963C13.868 58.6365 14.0313 58.7531 14.0313 59.4529ZM51.5864 58.9164C51.5864 58.9631 51.4231 59.0797 51.2132 59.1497C51.0265 59.2197 51.8371 59.2896 51.9071 59.1497C52.047 58.9164 51.5864 58.7298 51.5864 58.9164ZM10.2991 59.2896C10.1475 59.3363 10.5557 59.5229 10.4158 59.5229C10.2991 59.5229 10.0192 59.4063 9.83262 59.2896C9.64601 59.173 11.1681 59.3887 11.2847 59.3887C11.4247 59.3887 10.1125 59.173 10.2991 59.2896ZM16.5505 59.6395C16.9471 60.0827 16.9704 60.2227 16.7138 60.2227C16.5272 60.2227 16.3639 60.0827 16.3639 59.8961C16.3639 59.6862 16.2007 59.6162 15.8974 59.6862C15.4542 59.8028 15.2676 59.5229 15.5942 59.2197C15.8508 58.9631 16.014 59.033 16.5505 59.6395ZM22.6387 59.3363C22.6153 59.3596 22.7086 59.6395 22.8719 59.9194C23.1518 60.4559 23.8283 60.6659 23.8283 60.2227C23.8283 60.0827 23.9449 59.9894 24.0849 59.9894C24.2015 59.9894 24.2715 60.0827 24.1782 60.1994C24.1082 60.3393 24.5047 60.4793 25.0412 60.5259C25.7177 60.5726 25.5078 60.6192 24.3881 60.6426C23.0585 60.6892 22.6853 60.6192 22.5687 60.316C22.3821 59.8495 22.3821 58.9397 22.5687 59.103C22.6387 59.1963 22.6853 59.2896 22.6387 59.3363ZM33.8585 59.2896C33.8585 59.4063 33.7652 59.5229 33.6253 59.5229C33.5086 59.5229 33.392 59.4063 33.392 59.2896C33.392 59.1497 33.5086 59.0564 33.6253 59.0564C33.7652 59.0564 33.8585 59.1497 33.8585 59.2896ZM9.83262 60.5959C9.83258 61.0159 48.7742 60.5726 48.6343 60.6426C48.5176 60.7125 51.8021 56.957 51.2132 56.4905C51.2132 56.3505 9.50471 57.8667 9.62135 57.8667C9.7613 57.8667 9.83262 60.5492 9.83262 60.5959ZM18.1134 59.8028C18.44 59.9428 18.6965 60.1527 18.6965 60.246C18.6965 60.3393 18.9298 60.4793 19.233 60.5259C19.513 60.5726 18.44 60.6192 16.8305 60.6192L13.9147 60.5959L16.2473 60.4559C17.5302 60.386 18.4166 60.2927 18.2067 60.2693C17.9968 60.246 17.6935 60.0594 17.5302 59.8728C17.1803 59.4529 17.3203 59.4296 18.1134 59.8028ZM21.4957 59.7328C21.4957 59.8728 21.4024 60.0361 21.2624 60.1061C21.1458 60.176 21.0292 60.0827 21.0292 59.8961C21.0292 59.6862 21.1458 59.5229 21.2624 59.5229C21.4024 59.5229 21.4957 59.6162 21.4957 59.7328ZM30.2663 60.1527C30.103 60.316 29.6598 59.9894 29.6598 59.7095C29.6598 59.5696 29.7998 59.5696 30.0097 59.7562C30.2196 59.9194 30.3129 60.1061 30.2663 60.1527ZM34.5583 59.9894C34.5583 60.1061 34.465 60.2227 34.325 60.2227C34.2084 60.2227 34.0918 60.1061 34.0918 59.9894C34.0918 59.8495 34.2084 59.7562 34.325 59.7562C34.465 59.7562 34.5583 59.8495 34.5583 59.9894ZM20.5626 60.2227C20.5626 60.5492 21.5657 60.5259 21.9155 60.176C22.1255 59.9661 22.1955 59.9894 22.1955 60.2927C22.1955 60.6192 21.9622 60.6892 21.0058 60.6892C20.3527 60.6892 19.8862 60.5959 19.9562 60.4793C20.0495 60.3626 19.9562 60.1994 19.8162 60.1527C19.6529 60.0827 19.7462 60.0127 20.0495 60.0127C20.3294 59.9894 20.5626 60.0827 20.5626 60.2227ZM47.9708 60.2227C48.0408 60.3393 47.9475 60.4559 47.7376 60.4559C47.5276 60.4559 47.4343 60.3393 47.5043 60.2227C47.5743 60.0827 47.6909 59.9894 47.7376 59.9894C47.7842 59.9894 47.9008 60.0827 47.9708 60.2227ZM10.649 60.4559C10.719 60.5726 10.6257 60.6892 10.4391 60.6892C10.2292 60.6892 10.0659 60.5726 10.0659 60.4559C10.0659 60.316 10.1592 60.2227 10.2758 60.2227C10.4158 60.2227 10.5791 60.316 10.649 60.4559ZM31.0594 60.4559C31.316 60.6192 31.106 60.6659 30.3596 60.6659C29.4965 60.6426 29.4032 60.6192 29.8931 60.4559C30.6862 60.1994 30.6628 60.1994 31.0594 60.4559ZM46.5713 60.4559C46.6412 60.5726 46.3613 60.6659 45.8948 60.6426C45.4516 60.6192 45.125 60.5259 45.195 60.4093C45.3583 60.1527 46.3846 60.176 46.5713 60.4559ZM28.5635 60.6192C28.2603 60.6659 27.7937 60.6659 27.5138 60.6192C27.2106 60.5726 27.4438 60.5259 28.027 60.5259C28.6101 60.5259 28.8434 60.5726 28.5635 60.6192Z" fill="#5A8D39"/>
</svg>
