<svg width="25" height="25" viewBox="0 0 25 25" fill="none" xmlns="http://www.w3.org/2000/svg">
  <path d="M16.9825 4.48295C17.2131 4.24417 17.489 4.05372 17.794 3.92269C18.099 3.79167 18.427 3.72271 18.759 3.71982C19.0909 3.71694 19.4201 3.78019 19.7274 3.90589C20.0346 4.0316 20.3138 4.21723 20.5485 4.45196C20.7832 4.68669 20.9689 4.96582 21.0946 5.27306C21.2203 5.5803 21.2835 5.9095 21.2806 6.24145C21.2777 6.5734 21.2088 6.90145 21.0778 7.20646C20.9467 7.51147 20.7563 7.78733 20.5175 8.01795L19.5263 9.0092L15.9913 5.4742L16.9825 4.48295ZM14.2237 7.2417L3.75 17.7154V21.2504H7.285L17.76 10.7767L14.2237 7.2417Z" fill="white" />
</svg>