<svg width="25" height="25" viewBox="0 0 25 25" fill="none" xmlns="http://www.w3.org/2000/svg">
<path d="M4.86108 4.41936V9.41936H5.44308M5.44308 9.41936C6.10693 7.77749 7.29677 6.40227 8.82611 5.50922C10.3555 4.61617 12.1379 4.25577 13.8941 4.4845C15.6502 4.71323 17.2809 5.51816 18.5305 6.77314C19.78 8.02812 20.5779 9.66223 20.7991 11.4194M5.44308 9.41936H9.86108M20.8611 20.4194V15.4194H20.2801M20.2801 15.4194C19.6153 17.0603 18.4251 18.4344 16.8959 19.3267C15.3667 20.2189 13.5848 20.5789 11.8292 20.3502C10.0735 20.1216 8.44328 19.3172 7.19362 18.0631C5.94395 16.8089 5.14544 15.1758 4.92308 13.4194M20.2801 15.4194H15.8611" stroke="white" stroke-width="2" stroke-linecap="round" stroke-linejoin="round"/>
</svg>
